<?xml version="1.0" encoding="utf-8"?>
<!-- Generator: Adobe Illustrator 25.2.2, SVG Export Plug-In . SVG Version: 6.00 Build 0)  -->
<svg version="1.1" id="Ebene_1" xmlns="http://www.w3.org/2000/svg" xmlns:xlink="http://www.w3.org/1999/xlink" x="0px" y="0px"
	 viewBox="0 0 91 33" style="enable-background:new 0 0 91 33;" xml:space="preserve">
<style type="text/css">
	.st0{fill-rule:evenodd;clip-rule:evenodd;fill:#1CC691;}
	.st1{fill-rule:evenodd;clip-rule:evenodd;fill:#FFFFFF;}
	.st2{fill-rule:evenodd;clip-rule:evenodd;fill:#5A5A5A;}
</style>
<g>
	<path class="st0" d="M14.7,7.3c0,1.7-0.6,3.4-1.7,4.7l1.6,21h-14l1.5-20.6C0.7,11,0,9.2,0,7.3C0,3.3,3.3,0,7.4,0
		C11.4,0,14.7,3.3,14.7,7.3z"/>
	<g>
		<ellipse class="st1" cx="7.4" cy="7.2" rx="1.8" ry="1.8"/>
		<path class="st1" d="M8.8,15.3v11.9H6.3v-9.5L8.8,15.3z"/>
	</g>
	<g transform="translate(23.278 9.695)">
		<path class="st2" d="M12.5,13.2c-0.9,1-1.9,1.7-2.4,1.9c-0.5,0.3-1,0.4-1.6,0.4C8,15.5,7.4,15.3,7,15c-0.4-0.3-0.8-0.8-0.9-1.4
			c-0.2-0.6-0.3-1.4-0.3-2.4V6.6c0-0.1,0-0.6-0.3-0.8c-0.1,0-0.2-0.1-0.3-0.1C5.1,5.8,5,5.7,5,5.6L5,5c0-0.1,0.1-0.2,0.2-0.2h2
			c0.3,0,0.5,0.2,0.5,0.5v2.7h0v3.4c0,1,0.2,1.7,0.5,2C8.7,13.9,9.1,14,9.6,14c0.3,0,0.7-0.1,1.2-0.3c0.4-0.2,1.2-0.6,1.8-1.2l0-0.5
			h0l0-4.9V6.6c0-0.1,0-0.6-0.3-0.8c-0.1,0-0.2-0.1-0.2-0.1c-0.1,0-0.2-0.1-0.2-0.2l0-0.5c0-0.1,0.1-0.2,0.2-0.2h2
			c0.3,0,0.5,0.2,0.5,0.5v1.8c0,0,0,0,0,0v3.7c0,0.8,0,1.6,0,2.3h0l0,0.3c0,0.1,0,0.7,0.3,0.8c0.1,0,0.2,0.1,0.2,0.1
			c0.1,0,0.2,0.1,0.2,0.2l0,0.5c0,0.1-0.1,0.2-0.2,0.2c0,0,0,0,0,0h-2c-0.3,0-0.5-0.2-0.5-0.5c0,0,0,0,0,0v0l0-1h0L12.5,13.2z
			 M16.6,3.1L16.6,3.1l0-1.4c0-0.1,0-0.6-0.3-0.7c0,0-0.1,0-0.1,0C16.1,1,16,0.9,16,0.8l0-0.5c0-0.1,0.1-0.2,0.2-0.2c0,0,0,0,0,0H18
			c0.3,0,0.5,0.2,0.5,0.5l0,2.6v3.4c1-1.4,2.1-2.1,3.3-2.1c1.1,0,2,0.5,2.9,1.4c0.8,0.9,1.2,2.2,1.2,3.8c0,1.9-0.6,3.4-1.9,4.5
			c-1.1,1-2.3,1.5-3.6,1.5c-0.6,0-1.2-0.1-1.9-0.3c-0.6-0.2-1.1-0.5-1.7-0.8c-0.2-0.1-0.3-0.3-0.3-0.5V3.9
			C16.6,3.7,16.6,3.4,16.6,3.1L16.6,3.1z M18.7,13.8c0.3,0.3,0.7,0.5,1,0.7c0.4,0.2,0.9,0.3,1.3,0.3c0.7,0,1.4-0.4,2-1.1
			c0.6-0.8,0.9-1.9,0.9-3.3C23.9,9,23.6,8,23,7.2c-0.6-0.7-1.3-1.1-2.1-1.1c-0.4,0-0.8,0.1-1.2,0.3c-0.3,0.1-0.6,0.4-1,0.8
			c-0.1,0.1-0.2,0.2-0.2,0.4v5.8C18.5,13.6,18.6,13.7,18.7,13.8z M39.6,12V7.5c0.9-1,2.2-1.5,3.1-1.5c0.6,0,1,0.2,1.3,0.6
			c0.2,0.4,0.4,1.1,0.4,2V12h0v2.7c0,0.3,0.2,0.5,0.5,0.5h1.4c0.1,0,0.3,0,0.4,0c0.1,0,0.2-0.1,0.2-0.2l0-0.5c0-0.1-0.1-0.2-0.2-0.2
			c-0.1,0-0.1,0-0.2,0c-0.3-0.2-0.3-0.6-0.3-0.8v-1.4h0V8.5c0-0.9-0.1-1.6-0.3-2.1c-0.2-0.6-0.6-1.1-1-1.4c-0.4-0.3-0.9-0.4-1.5-0.4
			c-1.1,0-2.6,0.6-3.7,1.9c0,0,0,0,0,0c0,0.1-0.1,0.1-0.2,0c0,0,0-0.1,0-0.1V6.1v0V5.3c0-0.3-0.2-0.5-0.5-0.5h-1.8
			c-0.1,0-0.2,0.1-0.2,0.2c0,0,0,0,0,0l0,0.5c0,0.1,0.1,0.2,0.1,0.2c0,0,0.1,0,0.1,0c0.3,0.2,0.3,0.6,0.3,0.7v0c0,0.1,0,0.2,0,0.3v1
			h0c0,0.4,0,0.8,0,1.2v3.8c0,0,0,0,0,0v0.6c0,0.1,0,0.6-0.3,0.8c-0.1,0-0.1,0-0.2,0.1c-0.1,0-0.2,0.1-0.2,0.2l0,0.5
			c0,0.1,0.1,0.2,0.2,0.2h1.9c0.3,0,0.5-0.2,0.5-0.5V12L39.6,12z M66.4,12.7v0.7c0,0,0,0.1,0,0.1c0,0.3,0.1,0.5,0.3,0.6
			c0,0,0.1,0,0.1,0c0.1,0,0.1,0.1,0.1,0.2l0,0.5c0,0.1-0.1,0.2-0.2,0.2l0,0H65c-0.3,0-0.5-0.2-0.5-0.5v-1c-1.1,0.8-1.8,1.3-2.1,1.5
			c-0.4,0.2-0.9,0.3-1.3,0.3c-0.7,0-1.3-0.3-1.8-0.8c-0.5-0.5-0.7-1.2-0.7-2c0-0.5,0.1-1,0.3-1.4c0.3-0.5,0.8-1.1,1.7-1.5
			c0.9-0.4,1.6-0.4,3.9-1V7.8c0-1-0.2-2-1.8-1.9C61.5,6,60.4,6.3,59.5,7c-0.1,0.1-0.2,0-0.3,0c0,0,0-0.1,0-0.1V6.2
			c0-0.3,0.1-0.5,0.2-0.6c0.7-0.6,2.4-1.2,4-1.1c1.8,0.1,2.5,0.9,2.8,2c0.1,0.4,0.2,0.6,0.2,1.7v3.2C66.4,11.8,66.4,12.3,66.4,12.7
			L66.4,12.7z M64.5,9.6C63,9.8,62.2,10,62,10.1c-0.8,0.3-1.4,0.6-1.5,1.9c0,0.6,0.2,1,0.5,1.4s0.7,0.6,1.2,0.6
			c0.5,0,1.2-0.4,2.1-1.1c0.2-0.1,0.2-0.3,0.2-0.5L64.5,9.6z M56.8,13.5L56.8,13.5c0,0.1,0,0.6,0.3,0.7c0,0,0.1,0,0.1,0
			c0.1,0,0.1,0.1,0.1,0.2l0,0.5c0,0.1-0.1,0.2-0.2,0.2c0,0,0,0,0,0h-1.7c-0.3,0-0.5-0.2-0.5-0.5v0v-0.5l0,0c-0.5,0.5-1,0.9-1.5,1.2
			s-1,0.4-1.6,0.4c-1.1,0-2.1-0.5-3-1.4c-0.8-1-1.3-2.2-1.3-3.7c0-1.5,0.5-2.9,1.4-4.1c0.9-1.3,2.1-1.9,3.6-1.9
			c0.9,0,1.7,0.3,2.3,0.9V1.7c0-0.1,0-0.6-0.3-0.8c0,0-0.1,0-0.1,0c-0.1,0-0.1-0.1-0.1-0.2l0-0.5c0-0.1,0.1-0.2,0.2-0.2h1.7
			c0.3,0,0.5,0.2,0.5,0.5L56.8,13.5L56.8,13.5z M53.7,6.1c-0.4-0.2-0.7-0.3-1.1-0.3c-0.7,0-1.3,0.3-1.8,0.8c-0.6,0.6-1,1.4-1,3
			c0,1.6,0.3,2.7,1,3.6c0.7,0.8,1.4,1.2,2.2,1.2c0.6,0,1.1-0.2,1.7-0.8c0.2-0.2,0.3-0.4,0.3-0.7V8.4C55,7.5,54.5,6.6,53.7,6.1
			L53.7,6.1z M28,14.3c-0.8-1-1.3-2.5-1.3-4c0-1.6,0.5-3.1,1.4-4.1c0.9-1.1,2.2-1.7,3.7-1.7c1.3,0,2.2,0.4,2.9,1.3
			c0.6,0.8,0.9,1.9,0.9,3.4c0,0.2,0,0.4,0,0.7c0,0.2-0.2,0.3-0.4,0.3h-6.5c0,0-0.1,0-0.1,0c0,0,0,0,0,0.1c0,1.2,0.4,2.2,1.1,2.9
			c0.7,0.7,1.6,1.1,2.7,1.1c0.8,0,1.9-0.2,2.7-0.5c0.1,0,0.2,0,0.3,0.1c0,0,0,0.1,0,0.1l-0.1,0.4c0,0.2-0.1,0.3-0.3,0.4
			c-0.8,0.4-2,0.8-3.3,0.8C30.2,15.7,28.9,15.3,28,14.3L28,14.3z M28.6,8.8C28.6,8.9,28.6,8.9,28.6,8.8c0.1,0.1,0.1,0.1,0.1,0.1h5.2
			c0.1,0,0.1,0,0.1-0.1c0.1-0.5,0.1-1.5-0.7-2.4c-0.4-0.4-0.9-0.6-1.8-0.6C29.8,5.9,28.8,7.5,28.6,8.8L28.6,8.8z"/>
		<path class="st2" d="M44.4,12.1v1.4c0,0.1,0,0.6-0.3,0.8c0,0,0,0,0,0c-0.2,0.1-0.4,0.3-0.4,0.5c0,0.2,0.2,0.4,0.4,0.4c0,0,0,0,0,0
			h1.7c0.3,0,0.5-0.2,0.5-0.5c0,0,0,0,0,0V12L44.4,12.1z M39.6,12.1v1.4c0,0.1,0,0.6,0.3,0.8c0,0,0,0,0,0c0.2,0.1,0.3,0.3,0.4,0.5
			c0,0.2-0.2,0.4-0.4,0.4c0,0,0,0,0,0h-1.7c-0.3,0-0.5-0.2-0.5-0.5V12L39.6,12.1z M2.7,5.7v8.1c0,0.2,0.1,0.4,0.3,0.5
			c0.2,0.1,0.3,0.3,0.3,0.5V15c0,0.2-0.1,0.3-0.3,0.3H0.3C0.1,15.3,0,15.1,0,15c0,0,0,0,0,0v-0.2c0-0.2,0.1-0.4,0.3-0.5
			c0.2-0.1,0.3-0.3,0.3-0.5V6c0-0.1-0.1-0.2-0.2-0.2c-0.1,0-0.2-0.1-0.2-0.2c0,0,0,0,0,0V5.3c0-0.3,0.2-0.5,0.5-0.5l0,0h1.2
			C2.3,4.8,2.7,5.2,2.7,5.7L2.7,5.7z"/>
		<ellipse class="st2" cx="1.7" cy="1.5" rx="1.3" ry="1.3"/>
	</g>
</g>
</svg>
